<svg width="1246" height="297" viewBox="0 0 1246 297" fill="none" xmlns="http://www.w3.org/2000/svg">
<rect x="268" y="43" width="42" height="130.285" rx="20" transform="rotate(-89.6997 268 43)" fill="url(#paint0_linear_2401_217)"/>
<rect x="465" y="42" width="42" height="130.285" rx="20" transform="rotate(-89.6997 465 42)" fill="url(#paint1_linear_2401_217)"/>
<rect x="465" y="215" width="42" height="130.285" rx="20" transform="rotate(-89.6997 465 215)" fill="url(#paint2_linear_2401_217)"/>
<rect x="268" y="216" width="42" height="130.285" rx="20" transform="rotate(-89.6997 268 216)" fill="url(#paint3_linear_2401_217)"/>
<rect x="920" y="42" width="42" height="130.285" rx="20" transform="rotate(-89.6997 920 42)" fill="url(#paint4_linear_2401_217)"/>
<rect x="1115" y="42" width="42" height="130.285" rx="20" transform="rotate(-89.6997 1115 42)" fill="url(#paint5_linear_2401_217)"/>
<rect x="1115" y="214" width="42" height="130.138" rx="20" transform="rotate(-89.6997 1115 214)" fill="url(#paint6_linear_2401_217)"/>
<rect x="268" y="43" width="42" height="130.285" rx="20" transform="rotate(-89.6997 268 43)" fill="url(#paint7_linear_2401_217)"/>
<rect x="465" y="42" width="42" height="130.285" rx="20" transform="rotate(-89.6997 465 42)" fill="url(#paint8_linear_2401_217)"/>
<rect x="465" y="215" width="42" height="130.285" rx="20" transform="rotate(-89.6997 465 215)" fill="url(#paint9_linear_2401_217)"/>
<rect x="268" y="216" width="42" height="130.285" rx="20" transform="rotate(-89.6997 268 216)" fill="url(#paint10_linear_2401_217)"/>
<rect x="920" y="42" width="42" height="130.285" rx="20" transform="rotate(-89.6997 920 42)" fill="url(#paint11_linear_2401_217)"/>
<rect x="1115" y="42" width="42" height="130.285" rx="20" transform="rotate(-89.6997 1115 42)" fill="url(#paint12_linear_2401_217)"/>
<rect y="71" width="42" height="145" rx="20" fill="url(#paint13_linear_2401_217)"/>
<rect x="652" y="1" width="42" height="145" rx="20" fill="url(#paint14_linear_2401_217)"/>
<rect x="465" width="42" height="215" rx="20" fill="url(#paint15_linear_2401_217)"/>
<rect x="814" width="42" height="145" rx="20" fill="url(#paint16_linear_2401_217)"/>
<rect x="268" y="1" width="42" height="215" rx="20" fill="url(#paint17_linear_2401_217)"/>
<rect x="162" y="71" width="42" height="145" rx="20" fill="url(#paint18_linear_2401_217)"/>
<rect x="554" width="42" height="215" rx="20" fill="url(#paint19_linear_2401_217)"/>
<rect x="920" y="1" width="42" height="215" rx="20" fill="url(#paint20_linear_2401_217)"/>
<rect x="920" y="130" width="42" height="130.285" rx="20" transform="rotate(-89.6997 920 130)" fill="url(#paint21_linear_2401_217)"/>
<rect x="1009" width="42" height="215" rx="20" fill="url(#paint22_linear_2401_217)"/>
<rect x="1115" width="38" height="130" rx="19" fill="url(#paint23_linear_2401_217)"/>
<rect x="1207" y="88" width="38" height="126" rx="19" fill="url(#paint24_linear_2401_217)"/>
<rect x="1115" y="130" width="42" height="130.285" rx="20" transform="rotate(-89.6997 1115 130)" fill="url(#paint25_linear_2401_217)"/>
<rect y="2" width="42" height="214" rx="20" fill="url(#paint26_linear_2401_217)"/>
<rect x="733" width="42" height="145" rx="20" fill="url(#paint27_linear_2401_217)"/>
<rect x="652" y="1" width="42" height="213" rx="20" fill="url(#paint28_linear_2401_217)"/>
<rect x="465" width="42" height="215" rx="20" fill="url(#paint29_linear_2401_217)"/>
<rect x="814" width="42" height="214" rx="20" fill="url(#paint30_linear_2401_217)"/>
<rect x="268" y="1" width="42" height="215" rx="20" fill="url(#paint31_linear_2401_217)"/>
<rect x="162" y="2" width="42" height="214" rx="20" fill="url(#paint32_linear_2401_217)"/>
<rect x="81" y="71" width="42" height="145" rx="20" fill="url(#paint33_linear_2401_217)"/>
<rect x="554" width="42" height="215" rx="20" fill="url(#paint34_linear_2401_217)"/>
<rect x="920" y="1" width="42" height="215" rx="20" fill="url(#paint35_linear_2401_217)"/>
<rect x="920" y="130" width="42" height="130.285" rx="20" transform="rotate(-89.6997 920 130)" fill="url(#paint36_linear_2401_217)"/>
<rect x="1009" width="42" height="215" rx="20" fill="url(#paint37_linear_2401_217)"/>
<rect x="1115" width="38" height="130" rx="19" fill="url(#paint38_linear_2401_217)"/>
<rect x="1207" y="88" width="38" height="126" rx="19" fill="url(#paint39_linear_2401_217)"/>
<rect x="1115" y="130" width="42" height="130.285" rx="20" transform="rotate(-89.6997 1115 130)" fill="url(#paint40_linear_2401_217)"/>
<rect x="1115" y="214" width="42" height="130.138" rx="20" transform="rotate(-89.6997 1115 214)" fill="url(#paint41_linear_2401_217)"/>
<path d="M137.045 289L130.682 265.727H133.545L138.409 284.682H138.636L143.591 265.727H146.773L151.727 284.682H151.955L156.818 265.727H159.682L153.318 289H150.409L145.273 270.455H145.091L139.955 289H137.045ZM173.07 289V271.545H175.751V289H173.07ZM174.433 268.636C173.91 268.636 173.46 268.458 173.081 268.102C172.71 267.746 172.524 267.318 172.524 266.818C172.524 266.318 172.71 265.89 173.081 265.534C173.46 265.178 173.91 265 174.433 265C174.956 265 175.403 265.178 175.774 265.534C176.153 265.89 176.342 266.318 176.342 266.818C176.342 267.318 176.153 267.746 175.774 268.102C175.403 268.458 174.956 268.636 174.433 268.636ZM197.494 289.364C196.04 289.364 194.756 288.996 193.642 288.261C192.528 287.519 191.657 286.473 191.028 285.125C190.4 283.769 190.085 282.167 190.085 280.318C190.085 278.485 190.4 276.894 191.028 275.545C191.657 274.197 192.532 273.155 193.653 272.42C194.775 271.686 196.07 271.318 197.54 271.318C198.676 271.318 199.574 271.508 200.233 271.886C200.9 272.258 201.407 272.682 201.756 273.159C202.112 273.629 202.388 274.015 202.585 274.318H202.812V265.727H205.494V289H202.903V286.318H202.585C202.388 286.636 202.108 287.038 201.744 287.523C201.381 288 200.862 288.428 200.187 288.807C199.513 289.178 198.615 289.364 197.494 289.364ZM197.858 286.955C198.934 286.955 199.843 286.674 200.585 286.114C201.328 285.545 201.892 284.761 202.278 283.761C202.665 282.754 202.858 281.591 202.858 280.273C202.858 278.97 202.668 277.83 202.29 276.852C201.911 275.867 201.35 275.102 200.608 274.557C199.865 274.004 198.949 273.727 197.858 273.727C196.721 273.727 195.775 274.019 195.017 274.602C194.267 275.178 193.703 275.962 193.324 276.955C192.953 277.939 192.767 279.045 192.767 280.273C192.767 281.515 192.956 282.644 193.335 283.659C193.721 284.667 194.29 285.47 195.04 286.068C195.797 286.659 196.737 286.955 197.858 286.955ZM228.336 289.364C226.655 289.364 225.204 288.992 223.984 288.25C222.772 287.5 221.836 286.455 221.177 285.114C220.526 283.765 220.2 282.197 220.2 280.409C220.2 278.621 220.526 277.045 221.177 275.682C221.836 274.311 222.753 273.242 223.927 272.477C225.109 271.705 226.488 271.318 228.064 271.318C228.973 271.318 229.871 271.47 230.757 271.773C231.643 272.076 232.45 272.568 233.177 273.25C233.905 273.924 234.484 274.818 234.916 275.932C235.348 277.045 235.564 278.417 235.564 280.045V281.182H222.109V278.864H232.836C232.836 277.879 232.64 277 232.246 276.227C231.859 275.455 231.306 274.845 230.586 274.398C229.874 273.951 229.033 273.727 228.064 273.727C226.996 273.727 226.071 273.992 225.291 274.523C224.518 275.045 223.924 275.727 223.507 276.568C223.09 277.409 222.882 278.311 222.882 279.273V280.818C222.882 282.136 223.109 283.254 223.564 284.17C224.026 285.08 224.666 285.773 225.484 286.25C226.302 286.72 227.253 286.955 228.336 286.955C229.041 286.955 229.677 286.856 230.246 286.659C230.821 286.455 231.318 286.152 231.734 285.75C232.151 285.341 232.473 284.833 232.7 284.227L235.291 284.955C235.018 285.833 234.56 286.606 233.916 287.273C233.272 287.932 232.477 288.447 231.53 288.818C230.583 289.182 229.518 289.364 228.336 289.364ZM276.214 289.364C274.578 289.364 273.169 288.977 271.987 288.205C270.805 287.432 269.896 286.367 269.26 285.011C268.623 283.655 268.305 282.106 268.305 280.364C268.305 278.591 268.631 277.027 269.282 275.67C269.941 274.307 270.858 273.242 272.032 272.477C273.214 271.705 274.593 271.318 276.169 271.318C277.396 271.318 278.502 271.545 279.487 272C280.472 272.455 281.279 273.091 281.907 273.909C282.536 274.727 282.926 275.682 283.078 276.773H280.396C280.191 275.977 279.737 275.273 279.032 274.659C278.335 274.038 277.396 273.727 276.214 273.727C275.169 273.727 274.252 274 273.464 274.545C272.684 275.083 272.074 275.845 271.635 276.83C271.203 277.807 270.987 278.955 270.987 280.273C270.987 281.621 271.199 282.795 271.623 283.795C272.055 284.795 272.661 285.572 273.441 286.125C274.229 286.678 275.154 286.955 276.214 286.955C276.911 286.955 277.544 286.833 278.112 286.591C278.68 286.348 279.161 286 279.555 285.545C279.949 285.091 280.229 284.545 280.396 283.909H283.078C282.926 284.939 282.551 285.867 281.953 286.693C281.362 287.511 280.578 288.163 279.601 288.648C278.631 289.125 277.502 289.364 276.214 289.364ZM304.329 289.364C302.753 289.364 301.371 288.989 300.181 288.239C299 287.489 298.075 286.439 297.409 285.091C296.75 283.742 296.42 282.167 296.42 280.364C296.42 278.545 296.75 276.958 297.409 275.602C298.075 274.246 299 273.193 300.181 272.443C301.371 271.693 302.753 271.318 304.329 271.318C305.905 271.318 307.284 271.693 308.466 272.443C309.655 273.193 310.579 274.246 311.238 275.602C311.905 276.958 312.238 278.545 312.238 280.364C312.238 282.167 311.905 283.742 311.238 285.091C310.579 286.439 309.655 287.489 308.466 288.239C307.284 288.989 305.905 289.364 304.329 289.364ZM304.329 286.955C305.526 286.955 306.511 286.648 307.284 286.034C308.056 285.42 308.628 284.614 309 283.614C309.371 282.614 309.556 281.53 309.556 280.364C309.556 279.197 309.371 278.11 309 277.102C308.628 276.095 308.056 275.28 307.284 274.659C306.511 274.038 305.526 273.727 304.329 273.727C303.132 273.727 302.147 274.038 301.375 274.659C300.602 275.28 300.03 276.095 299.659 277.102C299.288 278.11 299.102 279.197 299.102 280.364C299.102 281.53 299.288 282.614 299.659 283.614C300.03 284.614 300.602 285.42 301.375 286.034C302.147 286.648 303.132 286.955 304.329 286.955ZM326.572 289V271.545H329.163V274.273H329.39C329.754 273.341 330.341 272.617 331.152 272.102C331.962 271.58 332.936 271.318 334.072 271.318C335.224 271.318 336.182 271.58 336.947 272.102C337.72 272.617 338.322 273.341 338.754 274.273H338.936C339.383 273.371 340.053 272.655 340.947 272.125C341.841 271.587 342.913 271.318 344.163 271.318C345.724 271.318 347 271.807 347.992 272.784C348.985 273.754 349.481 275.265 349.481 277.318V289H346.799V277.318C346.799 276.03 346.447 275.11 345.742 274.557C345.038 274.004 344.208 273.727 343.254 273.727C342.027 273.727 341.076 274.098 340.402 274.841C339.727 275.576 339.39 276.508 339.39 277.636V289H336.663V277.045C336.663 276.053 336.341 275.254 335.697 274.648C335.053 274.034 334.224 273.727 333.208 273.727C332.511 273.727 331.86 273.913 331.254 274.284C330.655 274.655 330.171 275.17 329.799 275.83C329.436 276.481 329.254 277.235 329.254 278.091V289H326.572ZM364.625 289V271.545H367.215V274.273H367.443C367.806 273.341 368.393 272.617 369.204 272.102C370.015 271.58 370.988 271.318 372.125 271.318C373.276 271.318 374.234 271.58 375 272.102C375.772 272.617 376.375 273.341 376.806 274.273H376.988C377.435 273.371 378.106 272.655 379 272.125C379.893 271.587 380.965 271.318 382.215 271.318C383.776 271.318 385.053 271.807 386.045 272.784C387.037 273.754 387.534 275.265 387.534 277.318V289H384.852V277.318C384.852 276.03 384.5 275.11 383.795 274.557C383.09 274.004 382.261 273.727 381.306 273.727C380.079 273.727 379.128 274.098 378.454 274.841C377.78 275.576 377.443 276.508 377.443 277.636V289H374.715V277.045C374.715 276.053 374.393 275.254 373.75 274.648C373.106 274.034 372.276 273.727 371.261 273.727C370.564 273.727 369.912 273.913 369.306 274.284C368.708 274.655 368.223 275.17 367.852 275.83C367.488 276.481 367.306 277.235 367.306 278.091V289H364.625ZM409.995 289.364C408.313 289.364 406.863 288.992 405.643 288.25C404.431 287.5 403.495 286.455 402.836 285.114C402.185 283.765 401.859 282.197 401.859 280.409C401.859 278.621 402.185 277.045 402.836 275.682C403.495 274.311 404.412 273.242 405.586 272.477C406.768 271.705 408.147 271.318 409.723 271.318C410.632 271.318 411.529 271.47 412.416 271.773C413.302 272.076 414.109 272.568 414.836 273.25C415.563 273.924 416.143 274.818 416.575 275.932C417.007 277.045 417.223 278.417 417.223 280.045V281.182H403.768V278.864H414.495C414.495 277.879 414.298 277 413.904 276.227C413.518 275.455 412.965 274.845 412.245 274.398C411.533 273.951 410.692 273.727 409.723 273.727C408.654 273.727 407.73 273.992 406.95 274.523C406.177 275.045 405.582 275.727 405.166 276.568C404.749 277.409 404.541 278.311 404.541 279.273V280.818C404.541 282.136 404.768 283.254 405.223 284.17C405.685 285.08 406.325 285.773 407.143 286.25C407.961 286.72 408.912 286.955 409.995 286.955C410.7 286.955 411.336 286.856 411.904 286.659C412.48 286.455 412.976 286.152 413.393 285.75C413.81 285.341 414.132 284.833 414.359 284.227L416.95 284.955C416.677 285.833 416.219 286.606 415.575 287.273C414.931 287.932 414.135 288.447 413.188 288.818C412.241 289.182 411.177 289.364 409.995 289.364ZM431.542 289V271.545H434.133V274.182H434.315C434.633 273.318 435.209 272.617 436.042 272.08C436.875 271.542 437.815 271.273 438.86 271.273C439.057 271.273 439.303 271.277 439.599 271.284C439.894 271.292 440.118 271.303 440.269 271.318V274.045C440.178 274.023 439.97 273.989 439.644 273.943C439.326 273.89 438.989 273.864 438.633 273.864C437.784 273.864 437.027 274.042 436.36 274.398C435.701 274.746 435.178 275.231 434.792 275.852C434.413 276.466 434.224 277.167 434.224 277.955V289H431.542ZM460.248 289.364C458.612 289.364 457.202 288.977 456.021 288.205C454.839 287.432 453.93 286.367 453.293 285.011C452.657 283.655 452.339 282.106 452.339 280.364C452.339 278.591 452.665 277.027 453.316 275.67C453.975 274.307 454.892 273.242 456.066 272.477C457.248 271.705 458.627 271.318 460.202 271.318C461.43 271.318 462.536 271.545 463.521 272C464.506 272.455 465.312 273.091 465.941 273.909C466.57 274.727 466.96 275.682 467.112 276.773H464.43C464.225 275.977 463.771 275.273 463.066 274.659C462.369 274.038 461.43 273.727 460.248 273.727C459.202 273.727 458.286 274 457.498 274.545C456.718 275.083 456.108 275.845 455.668 276.83C455.237 277.807 455.021 278.955 455.021 280.273C455.021 281.621 455.233 282.795 455.657 283.795C456.089 284.795 456.695 285.572 457.475 286.125C458.263 286.678 459.187 286.955 460.248 286.955C460.945 286.955 461.577 286.833 462.146 286.591C462.714 286.348 463.195 286 463.589 285.545C463.983 285.091 464.263 284.545 464.43 283.909H467.112C466.96 284.939 466.585 285.867 465.987 286.693C465.396 287.511 464.612 288.163 463.634 288.648C462.665 289.125 461.536 289.364 460.248 289.364ZM481.272 289V271.545H483.954V289H481.272ZM482.636 268.636C482.113 268.636 481.662 268.458 481.283 268.102C480.912 267.746 480.727 267.318 480.727 266.818C480.727 266.318 480.912 265.89 481.283 265.534C481.662 265.178 482.113 265 482.636 265C483.158 265 483.605 265.178 483.977 265.534C484.355 265.89 484.545 266.318 484.545 266.818C484.545 267.318 484.355 267.746 483.977 268.102C483.605 268.458 483.158 268.636 482.636 268.636ZM504.242 289.409C503.136 289.409 502.132 289.201 501.231 288.784C500.329 288.36 499.613 287.75 499.083 286.955C498.553 286.152 498.288 285.182 498.288 284.045C498.288 283.045 498.485 282.235 498.879 281.614C499.272 280.985 499.799 280.492 500.458 280.136C501.117 279.78 501.844 279.515 502.64 279.341C503.443 279.159 504.25 279.015 505.06 278.909C506.121 278.773 506.981 278.67 507.64 278.602C508.307 278.527 508.791 278.402 509.094 278.227C509.405 278.053 509.56 277.75 509.56 277.318V277.227C509.56 276.106 509.254 275.235 508.64 274.614C508.034 273.992 507.113 273.682 505.879 273.682C504.598 273.682 503.594 273.962 502.867 274.523C502.14 275.083 501.629 275.682 501.333 276.318L498.788 275.409C499.242 274.348 499.848 273.523 500.606 272.932C501.371 272.333 502.204 271.917 503.106 271.682C504.015 271.439 504.909 271.318 505.788 271.318C506.348 271.318 506.992 271.386 507.719 271.523C508.454 271.652 509.163 271.92 509.844 272.33C510.534 272.739 511.106 273.356 511.56 274.182C512.015 275.008 512.242 276.114 512.242 277.5V289H509.56V286.636H509.424C509.242 287.015 508.939 287.42 508.515 287.852C508.091 288.284 507.526 288.652 506.822 288.955C506.117 289.258 505.257 289.409 504.242 289.409ZM504.651 287C505.712 287 506.606 286.792 507.333 286.375C508.068 285.958 508.621 285.42 508.992 284.761C509.371 284.102 509.56 283.409 509.56 282.682V280.227C509.447 280.364 509.197 280.489 508.81 280.602C508.432 280.708 507.992 280.803 507.492 280.886C507 280.962 506.519 281.03 506.049 281.091C505.587 281.144 505.212 281.189 504.924 281.227C504.227 281.318 503.575 281.466 502.969 281.67C502.371 281.867 501.886 282.167 501.515 282.568C501.151 282.962 500.969 283.5 500.969 284.182C500.969 285.114 501.314 285.818 502.004 286.295C502.7 286.765 503.583 287 504.651 287ZM530.059 265.727V289H527.377V265.727H530.059ZM571.542 289.364C569.966 289.364 568.583 288.989 567.394 288.239C566.212 287.489 565.288 286.439 564.621 285.091C563.962 283.742 563.633 282.167 563.633 280.364C563.633 278.545 563.962 276.958 564.621 275.602C565.288 274.246 566.212 273.193 567.394 272.443C568.583 271.693 569.966 271.318 571.542 271.318C573.117 271.318 574.496 271.693 575.678 272.443C576.867 273.193 577.792 274.246 578.451 275.602C579.117 276.958 579.451 278.545 579.451 280.364C579.451 282.167 579.117 283.742 578.451 285.091C577.792 286.439 576.867 287.489 575.678 288.239C574.496 288.989 573.117 289.364 571.542 289.364ZM571.542 286.955C572.739 286.955 573.724 286.648 574.496 286.034C575.269 285.42 575.841 284.614 576.212 283.614C576.583 282.614 576.769 281.53 576.769 280.364C576.769 279.197 576.583 278.11 576.212 277.102C575.841 276.095 575.269 275.28 574.496 274.659C573.724 274.038 572.739 273.727 571.542 273.727C570.345 273.727 569.36 274.038 568.587 274.659C567.814 275.28 567.242 276.095 566.871 277.102C566.5 278.11 566.314 279.197 566.314 280.364C566.314 281.53 566.5 282.614 566.871 283.614C567.242 284.614 567.814 285.42 568.587 286.034C569.36 286.648 570.345 286.955 571.542 286.955ZM601.557 271.545V273.818H592.148V271.545H601.557ZM594.966 289V269.136C594.966 268.136 595.201 267.303 595.671 266.636C596.141 265.97 596.75 265.47 597.5 265.136C598.25 264.803 599.042 264.636 599.875 264.636C600.535 264.636 601.072 264.689 601.489 264.795C601.906 264.902 602.216 265 602.421 265.091L601.648 267.409C601.512 267.364 601.322 267.307 601.08 267.239C600.845 267.17 600.535 267.136 600.148 267.136C599.262 267.136 598.622 267.36 598.228 267.807C597.841 268.254 597.648 268.909 597.648 269.773V289H594.966ZM635.159 265.727H638.523L646.432 285.045H646.705L654.614 265.727H657.978V289H655.341V271.318H655.114L647.841 289H645.296L638.023 271.318H637.796V289H635.159V265.727ZM678.641 289.409C677.535 289.409 676.531 289.201 675.63 288.784C674.728 288.36 674.012 287.75 673.482 286.955C672.952 286.152 672.686 285.182 672.686 284.045C672.686 283.045 672.883 282.235 673.277 281.614C673.671 280.985 674.198 280.492 674.857 280.136C675.516 279.78 676.243 279.515 677.039 279.341C677.842 279.159 678.648 279.015 679.459 278.909C680.52 278.773 681.38 278.67 682.039 278.602C682.705 278.527 683.19 278.402 683.493 278.227C683.804 278.053 683.959 277.75 683.959 277.318V277.227C683.959 276.106 683.652 275.235 683.039 274.614C682.433 273.992 681.512 273.682 680.277 273.682C678.997 273.682 677.993 273.962 677.266 274.523C676.539 275.083 676.027 275.682 675.732 276.318L673.186 275.409C673.641 274.348 674.247 273.523 675.005 272.932C675.77 272.333 676.603 271.917 677.505 271.682C678.414 271.439 679.308 271.318 680.186 271.318C680.747 271.318 681.391 271.386 682.118 271.523C682.853 271.652 683.561 271.92 684.243 272.33C684.933 272.739 685.505 273.356 685.959 274.182C686.414 275.008 686.641 276.114 686.641 277.5V289H683.959V286.636H683.823C683.641 287.015 683.338 287.42 682.914 287.852C682.489 288.284 681.925 288.652 681.22 288.955C680.516 289.258 679.656 289.409 678.641 289.409ZM679.05 287C680.111 287 681.005 286.792 681.732 286.375C682.467 285.958 683.02 285.42 683.391 284.761C683.77 284.102 683.959 283.409 683.959 282.682V280.227C683.845 280.364 683.595 280.489 683.209 280.602C682.83 280.708 682.391 280.803 681.891 280.886C681.398 280.962 680.917 281.03 680.448 281.091C679.986 281.144 679.611 281.189 679.323 281.227C678.626 281.318 677.974 281.466 677.368 281.67C676.77 281.867 676.285 282.167 675.914 282.568C675.55 282.962 675.368 283.5 675.368 284.182C675.368 285.114 675.713 285.818 676.402 286.295C677.099 286.765 677.982 287 679.05 287ZM709.367 271.545V273.818H700.321V271.545H709.367ZM702.958 267.364H705.639V284C705.639 284.758 705.749 285.326 705.969 285.705C706.196 286.076 706.484 286.326 706.833 286.455C707.189 286.576 707.564 286.636 707.958 286.636C708.253 286.636 708.495 286.621 708.685 286.591C708.874 286.553 709.026 286.523 709.139 286.5L709.685 288.909C709.503 288.977 709.249 289.045 708.924 289.114C708.598 289.189 708.185 289.227 707.685 289.227C706.927 289.227 706.185 289.064 705.458 288.739C704.738 288.413 704.139 287.917 703.662 287.25C703.192 286.583 702.958 285.742 702.958 284.727V267.364ZM730.771 289.364C729.09 289.364 727.639 288.992 726.419 288.25C725.207 287.5 724.271 286.455 723.612 285.114C722.961 283.765 722.635 282.197 722.635 280.409C722.635 278.621 722.961 277.045 723.612 275.682C724.271 274.311 725.188 273.242 726.362 272.477C727.544 271.705 728.923 271.318 730.499 271.318C731.408 271.318 732.306 271.47 733.192 271.773C734.078 272.076 734.885 272.568 735.612 273.25C736.34 273.924 736.919 274.818 737.351 275.932C737.783 277.045 737.999 278.417 737.999 280.045V281.182H724.544V278.864H735.271C735.271 277.879 735.074 277 734.681 276.227C734.294 275.455 733.741 274.845 733.021 274.398C732.309 273.951 731.468 273.727 730.499 273.727C729.431 273.727 728.506 273.992 727.726 274.523C726.953 275.045 726.359 275.727 725.942 276.568C725.525 277.409 725.317 278.311 725.317 279.273V280.818C725.317 282.136 725.544 283.254 725.999 284.17C726.461 285.08 727.101 285.773 727.919 286.25C728.737 286.72 729.688 286.955 730.771 286.955C731.476 286.955 732.112 286.856 732.681 286.659C733.256 286.455 733.753 286.152 734.169 285.75C734.586 285.341 734.908 284.833 735.135 284.227L737.726 284.955C737.453 285.833 736.995 286.606 736.351 287.273C735.707 287.932 734.912 288.447 733.965 288.818C733.018 289.182 731.953 289.364 730.771 289.364ZM752.318 289V271.545H754.909V274.182H755.091C755.409 273.318 755.985 272.617 756.818 272.08C757.652 271.542 758.591 271.273 759.636 271.273C759.833 271.273 760.08 271.277 760.375 271.284C760.671 271.292 760.894 271.303 761.046 271.318V274.045C760.955 274.023 760.746 273.989 760.421 273.943C760.102 273.89 759.765 273.864 759.409 273.864C758.561 273.864 757.803 274.042 757.136 274.398C756.477 274.746 755.955 275.231 755.568 275.852C755.19 276.466 755 277.167 755 277.955V289H752.318ZM774.465 289V271.545H777.146V289H774.465ZM775.828 268.636C775.305 268.636 774.855 268.458 774.476 268.102C774.105 267.746 773.919 267.318 773.919 266.818C773.919 266.318 774.105 265.89 774.476 265.534C774.855 265.178 775.305 265 775.828 265C776.351 265 776.798 265.178 777.169 265.534C777.548 265.89 777.737 266.318 777.737 266.818C777.737 267.318 777.548 267.746 777.169 268.102C776.798 268.458 776.351 268.636 775.828 268.636ZM797.435 289.409C796.329 289.409 795.325 289.201 794.423 288.784C793.522 288.36 792.806 287.75 792.276 286.955C791.745 286.152 791.48 285.182 791.48 284.045C791.48 283.045 791.677 282.235 792.071 281.614C792.465 280.985 792.991 280.492 793.651 280.136C794.31 279.78 795.037 279.515 795.832 279.341C796.635 279.159 797.442 279.015 798.253 278.909C799.313 278.773 800.173 278.67 800.832 278.602C801.499 278.527 801.984 278.402 802.287 278.227C802.598 278.053 802.753 277.75 802.753 277.318V277.227C802.753 276.106 802.446 275.235 801.832 274.614C801.226 273.992 800.306 273.682 799.071 273.682C797.791 273.682 796.787 273.962 796.06 274.523C795.332 275.083 794.821 275.682 794.526 276.318L791.98 275.409C792.435 274.348 793.041 273.523 793.798 272.932C794.563 272.333 795.397 271.917 796.298 271.682C797.207 271.439 798.101 271.318 798.98 271.318C799.541 271.318 800.185 271.386 800.912 271.523C801.647 271.652 802.355 271.92 803.037 272.33C803.726 272.739 804.298 273.356 804.753 274.182C805.207 275.008 805.435 276.114 805.435 277.5V289H802.753V286.636H802.616C802.435 287.015 802.132 287.42 801.707 287.852C801.283 288.284 800.719 288.652 800.014 288.955C799.31 289.258 798.45 289.409 797.435 289.409ZM797.844 287C798.904 287 799.798 286.792 800.526 286.375C801.26 285.958 801.813 285.42 802.185 284.761C802.563 284.102 802.753 283.409 802.753 282.682V280.227C802.639 280.364 802.389 280.489 802.003 280.602C801.624 280.708 801.185 280.803 800.685 280.886C800.192 280.962 799.711 281.03 799.241 281.091C798.779 281.144 798.404 281.189 798.116 281.227C797.42 281.318 796.768 281.466 796.162 281.67C795.563 281.867 795.079 282.167 794.707 282.568C794.344 282.962 794.162 283.5 794.162 284.182C794.162 285.114 794.507 285.818 795.196 286.295C795.893 286.765 796.776 287 797.844 287ZM823.251 265.727V289H820.57V265.727H823.251ZM864.234 289.318C862.704 289.318 861.386 289.038 860.28 288.477C859.174 287.917 858.321 287.148 857.723 286.17C857.124 285.193 856.825 284.076 856.825 282.818C856.825 281.848 857.03 280.989 857.439 280.239C857.855 279.481 858.427 278.78 859.155 278.136C859.889 277.485 860.734 276.833 861.689 276.182L865.052 273.682C865.711 273.25 866.238 272.788 866.632 272.295C867.033 271.803 867.234 271.159 867.234 270.364C867.234 269.773 866.973 269.201 866.45 268.648C865.935 268.095 865.257 267.818 864.416 267.818C863.825 267.818 863.302 267.97 862.848 268.273C862.401 268.568 862.049 268.947 861.791 269.409C861.541 269.864 861.416 270.333 861.416 270.818C861.416 271.364 861.564 271.917 861.859 272.477C862.162 273.03 862.545 273.598 863.007 274.182C863.477 274.758 863.961 275.348 864.461 275.955L875.143 289H871.916L863.098 278.364C862.28 277.379 861.537 276.485 860.871 275.682C860.204 274.879 859.674 274.087 859.28 273.307C858.886 272.527 858.689 271.682 858.689 270.773C858.689 269.727 858.92 268.811 859.382 268.023C859.852 267.227 860.507 266.61 861.348 266.17C862.196 265.723 863.189 265.5 864.325 265.5C865.492 265.5 866.496 265.727 867.336 266.182C868.177 266.629 868.825 267.223 869.28 267.966C869.734 268.701 869.961 269.5 869.961 270.364C869.961 271.477 869.685 272.443 869.132 273.261C868.579 274.08 867.825 274.841 866.871 275.545L862.234 279C861.189 279.773 860.48 280.523 860.109 281.25C859.738 281.977 859.552 282.5 859.552 282.818C859.552 283.545 859.742 284.223 860.121 284.852C860.499 285.481 861.033 285.989 861.723 286.375C862.412 286.761 863.219 286.955 864.143 286.955C865.022 286.955 865.878 286.769 866.711 286.398C867.545 286.019 868.299 285.473 868.973 284.761C869.655 284.049 870.193 283.193 870.586 282.193C870.988 281.193 871.189 280.068 871.189 278.818H873.78C873.78 280.364 873.602 281.625 873.246 282.602C872.889 283.58 872.488 284.345 872.041 284.898C871.594 285.451 871.234 285.864 870.961 286.136C870.871 286.25 870.787 286.364 870.711 286.477C870.636 286.591 870.552 286.705 870.461 286.818C869.711 287.659 868.764 288.288 867.621 288.705C866.477 289.114 865.348 289.318 864.234 289.318ZM920.683 271.545C920.547 270.394 919.994 269.5 919.024 268.864C918.054 268.227 916.865 267.909 915.456 267.909C914.425 267.909 913.524 268.076 912.751 268.409C911.986 268.742 911.388 269.201 910.956 269.784C910.531 270.367 910.319 271.03 910.319 271.773C910.319 272.394 910.467 272.928 910.763 273.375C911.066 273.814 911.452 274.182 911.922 274.477C912.391 274.765 912.884 275.004 913.399 275.193C913.914 275.375 914.388 275.523 914.819 275.636L917.183 276.273C917.789 276.432 918.463 276.652 919.206 276.932C919.956 277.212 920.672 277.595 921.353 278.08C922.043 278.557 922.611 279.17 923.058 279.92C923.505 280.67 923.728 281.591 923.728 282.682C923.728 283.939 923.399 285.076 922.74 286.091C922.088 287.106 921.134 287.913 919.876 288.511C918.626 289.11 917.107 289.409 915.319 289.409C913.653 289.409 912.209 289.14 910.99 288.602C909.778 288.064 908.823 287.314 908.126 286.352C907.437 285.39 907.047 284.273 906.956 283H909.865C909.941 283.879 910.236 284.606 910.751 285.182C911.274 285.75 911.933 286.174 912.728 286.455C913.531 286.727 914.395 286.864 915.319 286.864C916.395 286.864 917.361 286.689 918.217 286.341C919.073 285.985 919.751 285.492 920.251 284.864C920.751 284.227 921.001 283.485 921.001 282.636C921.001 281.864 920.785 281.235 920.353 280.75C919.922 280.265 919.353 279.871 918.649 279.568C917.944 279.265 917.183 279 916.365 278.773L913.501 277.955C911.683 277.432 910.244 276.686 909.183 275.716C908.122 274.746 907.592 273.477 907.592 271.909C907.592 270.606 907.944 269.47 908.649 268.5C909.361 267.523 910.316 266.765 911.513 266.227C912.717 265.682 914.062 265.409 915.547 265.409C917.047 265.409 918.38 265.678 919.547 266.216C920.713 266.746 921.638 267.473 922.319 268.398C923.009 269.322 923.372 270.371 923.41 271.545H920.683ZM949.238 281.864V271.545H951.92V289H949.238V286.045H949.056C948.647 286.932 948.011 287.686 947.147 288.307C946.284 288.92 945.193 289.227 943.875 289.227C942.784 289.227 941.814 288.989 940.966 288.511C940.117 288.027 939.45 287.299 938.966 286.33C938.481 285.352 938.238 284.121 938.238 282.636V271.545H940.92V282.455C940.92 283.727 941.276 284.742 941.988 285.5C942.708 286.258 943.625 286.636 944.738 286.636C945.405 286.636 946.083 286.466 946.772 286.125C947.469 285.784 948.053 285.261 948.522 284.557C949 283.852 949.238 282.955 949.238 281.864ZM967.072 295.545V271.545H969.663V274.318H969.981C970.178 274.015 970.451 273.629 970.799 273.159C971.155 272.682 971.663 272.258 972.322 271.886C972.989 271.508 973.89 271.318 975.027 271.318C976.496 271.318 977.792 271.686 978.913 272.42C980.034 273.155 980.909 274.197 981.538 275.545C982.167 276.894 982.481 278.485 982.481 280.318C982.481 282.167 982.167 283.769 981.538 285.125C980.909 286.473 980.038 287.519 978.924 288.261C977.811 288.996 976.527 289.364 975.072 289.364C973.951 289.364 973.053 289.178 972.379 288.807C971.705 288.428 971.186 288 970.822 287.523C970.458 287.038 970.178 286.636 969.981 286.318H969.754V295.545H967.072ZM969.708 280.273C969.708 281.591 969.902 282.754 970.288 283.761C970.674 284.761 971.239 285.545 971.981 286.114C972.724 286.674 973.633 286.955 974.708 286.955C975.83 286.955 976.765 286.659 977.515 286.068C978.273 285.47 978.841 284.667 979.22 283.659C979.606 282.644 979.799 281.515 979.799 280.273C979.799 279.045 979.61 277.939 979.231 276.955C978.86 275.962 978.296 275.178 977.538 274.602C976.788 274.019 975.845 273.727 974.708 273.727C973.617 273.727 972.701 274.004 971.958 274.557C971.216 275.102 970.655 275.867 970.277 276.852C969.898 277.83 969.708 278.97 969.708 280.273ZM996.812 295.545V271.545H999.403V274.318H999.721C999.918 274.015 1000.19 273.629 1000.54 273.159C1000.9 272.682 1001.4 272.258 1002.06 271.886C1002.73 271.508 1003.63 271.318 1004.77 271.318C1006.24 271.318 1007.53 271.686 1008.65 272.42C1009.77 273.155 1010.65 274.197 1011.28 275.545C1011.91 276.894 1012.22 278.485 1012.22 280.318C1012.22 282.167 1011.91 283.769 1011.28 285.125C1010.65 286.473 1009.78 287.519 1008.66 288.261C1007.55 288.996 1006.27 289.364 1004.81 289.364C1003.69 289.364 1002.79 289.178 1002.12 288.807C1001.44 288.428 1000.93 288 1000.56 287.523C1000.2 287.038 999.918 286.636 999.721 286.318H999.494V295.545H996.812ZM999.448 280.273C999.448 281.591 999.642 282.754 1000.03 283.761C1000.41 284.761 1000.98 285.545 1001.72 286.114C1002.46 286.674 1003.37 286.955 1004.45 286.955C1005.57 286.955 1006.51 286.659 1007.26 286.068C1008.01 285.47 1008.58 284.667 1008.96 283.659C1009.35 282.644 1009.54 281.515 1009.54 280.273C1009.54 279.045 1009.35 277.939 1008.97 276.955C1008.6 275.962 1008.04 275.178 1007.28 274.602C1006.53 274.019 1005.58 273.727 1004.45 273.727C1003.36 273.727 1002.44 274.004 1001.7 274.557C1000.96 275.102 1000.4 275.867 1000.02 276.852C999.638 277.83 999.448 278.97 999.448 280.273ZM1029.23 265.727V289H1026.55V265.727H1029.23ZM1044.39 289V271.545H1047.07V289H1044.39ZM1045.75 268.636C1045.23 268.636 1044.78 268.458 1044.4 268.102C1044.03 267.746 1043.84 267.318 1043.84 266.818C1043.84 266.318 1044.03 265.89 1044.4 265.534C1044.78 265.178 1045.23 265 1045.75 265C1046.27 265 1046.72 265.178 1047.09 265.534C1047.47 265.89 1047.66 266.318 1047.66 266.818C1047.66 267.318 1047.47 267.746 1047.09 268.102C1046.72 268.458 1046.27 268.636 1045.75 268.636ZM1069.54 289.364C1067.86 289.364 1066.41 288.992 1065.19 288.25C1063.97 287.5 1063.04 286.455 1062.38 285.114C1061.73 283.765 1061.4 282.197 1061.4 280.409C1061.4 278.621 1061.73 277.045 1062.38 275.682C1063.04 274.311 1063.95 273.242 1065.13 272.477C1066.31 271.705 1067.69 271.318 1069.27 271.318C1070.17 271.318 1071.07 271.47 1071.96 271.773C1072.84 272.076 1073.65 272.568 1074.38 273.25C1075.11 273.924 1075.69 274.818 1076.12 275.932C1076.55 277.045 1076.77 278.417 1076.77 280.045V281.182H1063.31V278.864H1074.04C1074.04 277.879 1073.84 277 1073.45 276.227C1073.06 275.455 1072.51 274.845 1071.79 274.398C1071.08 273.951 1070.23 273.727 1069.27 273.727C1068.2 273.727 1067.27 273.992 1066.49 274.523C1065.72 275.045 1065.12 275.727 1064.71 276.568C1064.29 277.409 1064.08 278.311 1064.08 279.273V280.818C1064.08 282.136 1064.31 283.254 1064.77 284.17C1065.23 285.08 1065.87 285.773 1066.69 286.25C1067.5 286.72 1068.45 286.955 1069.54 286.955C1070.24 286.955 1070.88 286.856 1071.45 286.659C1072.02 286.455 1072.52 286.152 1072.94 285.75C1073.35 285.341 1073.67 284.833 1073.9 284.227L1076.49 284.955C1076.22 285.833 1075.76 286.606 1075.12 287.273C1074.47 287.932 1073.68 288.447 1072.73 288.818C1071.78 289.182 1070.72 289.364 1069.54 289.364ZM1103.45 275.455L1101.04 276.136C1100.89 275.735 1100.66 275.345 1100.37 274.966C1100.08 274.58 1099.69 274.261 1099.19 274.011C1098.69 273.761 1098.05 273.636 1097.27 273.636C1096.2 273.636 1095.31 273.883 1094.6 274.375C1093.89 274.86 1093.54 275.477 1093.54 276.227C1093.54 276.894 1093.78 277.42 1094.27 277.807C1094.75 278.193 1095.51 278.515 1096.54 278.773L1099.13 279.409C1100.69 279.788 1101.85 280.367 1102.62 281.148C1103.38 281.92 1103.77 282.917 1103.77 284.136C1103.77 285.136 1103.48 286.03 1102.9 286.818C1102.33 287.606 1101.54 288.227 1100.52 288.682C1099.49 289.136 1098.3 289.364 1096.95 289.364C1095.17 289.364 1093.69 288.977 1092.53 288.205C1091.36 287.432 1090.62 286.303 1090.31 284.818L1092.86 284.182C1093.1 285.121 1093.56 285.826 1094.23 286.295C1094.91 286.765 1095.8 287 1096.9 287C1098.15 287 1099.15 286.735 1099.88 286.205C1100.62 285.667 1100.99 285.023 1100.99 284.273C1100.99 283.667 1100.78 283.159 1100.36 282.75C1099.93 282.333 1099.28 282.023 1098.4 281.818L1095.49 281.136C1093.9 280.758 1092.72 280.17 1091.97 279.375C1091.23 278.572 1090.86 277.568 1090.86 276.364C1090.86 275.379 1091.13 274.508 1091.69 273.75C1092.25 272.992 1093.01 272.398 1093.97 271.966C1094.94 271.534 1096.04 271.318 1097.27 271.318C1098.99 271.318 1100.35 271.697 1101.33 272.455C1102.33 273.212 1103.03 274.212 1103.45 275.455Z" fill="black"/>
<defs>
<linearGradient id="paint0_linear_2401_217" x1="289" y1="43" x2="289" y2="173.285" gradientUnits="userSpaceOnUse">
<stop offset="0.395" stop-color="#3D3D3D"/>
</linearGradient>
<linearGradient id="paint1_linear_2401_217" x1="486" y1="42" x2="486" y2="172.285" gradientUnits="userSpaceOnUse">
<stop offset="0.395" stop-color="#3D3D3D"/>
</linearGradient>
<linearGradient id="paint2_linear_2401_217" x1="486" y1="215" x2="486" y2="345.285" gradientUnits="userSpaceOnUse">
<stop offset="0.395" stop-color="#3D3D3D"/>
</linearGradient>
<linearGradient id="paint3_linear_2401_217" x1="289" y1="216" x2="289" y2="346.285" gradientUnits="userSpaceOnUse">
<stop offset="0.395" stop-color="#3D3D3D"/>
</linearGradient>
<linearGradient id="paint4_linear_2401_217" x1="941" y1="42" x2="941" y2="172.285" gradientUnits="userSpaceOnUse">
<stop offset="0.395" stop-color="#3D3D3D"/>
</linearGradient>
<linearGradient id="paint5_linear_2401_217" x1="1136" y1="42" x2="1136" y2="172.285" gradientUnits="userSpaceOnUse">
<stop offset="0.395" stop-color="#3D3D3D"/>
</linearGradient>
<linearGradient id="paint6_linear_2401_217" x1="1136" y1="214" x2="1136" y2="344.138" gradientUnits="userSpaceOnUse">
<stop offset="0.395" stop-color="#3D3D3D"/>
</linearGradient>
<linearGradient id="paint7_linear_2401_217" x1="289" y1="43" x2="289" y2="173.285" gradientUnits="userSpaceOnUse">
<stop offset="0.395" stop-color="#3D3D3D"/>
</linearGradient>
<linearGradient id="paint8_linear_2401_217" x1="486" y1="42" x2="486" y2="172.285" gradientUnits="userSpaceOnUse">
<stop offset="0.395" stop-color="#3D3D3D"/>
</linearGradient>
<linearGradient id="paint9_linear_2401_217" x1="486" y1="215" x2="486" y2="345.285" gradientUnits="userSpaceOnUse">
<stop offset="0.395" stop-color="#3D3D3D"/>
</linearGradient>
<linearGradient id="paint10_linear_2401_217" x1="289" y1="216" x2="289" y2="346.285" gradientUnits="userSpaceOnUse">
<stop offset="0.395" stop-color="#3D3D3D"/>
</linearGradient>
<linearGradient id="paint11_linear_2401_217" x1="941" y1="42" x2="941" y2="172.285" gradientUnits="userSpaceOnUse">
<stop offset="0.395" stop-color="#3D3D3D"/>
</linearGradient>
<linearGradient id="paint12_linear_2401_217" x1="1136" y1="42" x2="1136" y2="172.285" gradientUnits="userSpaceOnUse">
<stop offset="0.395" stop-color="#3D3D3D"/>
</linearGradient>
<linearGradient id="paint13_linear_2401_217" x1="21" y1="71" x2="21" y2="216" gradientUnits="userSpaceOnUse">
<stop offset="0.395" stop-color="#3D3D3D"/>
</linearGradient>
<linearGradient id="paint14_linear_2401_217" x1="673" y1="1" x2="673" y2="146" gradientUnits="userSpaceOnUse">
<stop offset="0.395" stop-color="#3D3D3D"/>
</linearGradient>
<linearGradient id="paint15_linear_2401_217" x1="486" y1="0" x2="486" y2="215" gradientUnits="userSpaceOnUse">
<stop offset="0.395" stop-color="#3D3D3D"/>
</linearGradient>
<linearGradient id="paint16_linear_2401_217" x1="835" y1="0" x2="835" y2="145" gradientUnits="userSpaceOnUse">
<stop offset="0.395" stop-color="#3D3D3D"/>
</linearGradient>
<linearGradient id="paint17_linear_2401_217" x1="289" y1="1" x2="289" y2="216" gradientUnits="userSpaceOnUse">
<stop offset="0.395" stop-color="#3D3D3D"/>
</linearGradient>
<linearGradient id="paint18_linear_2401_217" x1="183" y1="71" x2="183" y2="216" gradientUnits="userSpaceOnUse">
<stop offset="0.395" stop-color="#3D3D3D"/>
</linearGradient>
<linearGradient id="paint19_linear_2401_217" x1="575" y1="0" x2="575" y2="215" gradientUnits="userSpaceOnUse">
<stop offset="0.395" stop-color="#3D3D3D"/>
</linearGradient>
<linearGradient id="paint20_linear_2401_217" x1="941" y1="1" x2="941" y2="216" gradientUnits="userSpaceOnUse">
<stop offset="0.395" stop-color="#3D3D3D"/>
</linearGradient>
<linearGradient id="paint21_linear_2401_217" x1="941" y1="130" x2="941" y2="260.285" gradientUnits="userSpaceOnUse">
<stop offset="0.395" stop-color="#3D3D3D"/>
</linearGradient>
<linearGradient id="paint22_linear_2401_217" x1="1030" y1="0" x2="1030" y2="215" gradientUnits="userSpaceOnUse">
<stop offset="0.395" stop-color="#3D3D3D"/>
</linearGradient>
<linearGradient id="paint23_linear_2401_217" x1="1134" y1="0" x2="1134" y2="130" gradientUnits="userSpaceOnUse">
<stop offset="0.395" stop-color="#3D3D3D"/>
</linearGradient>
<linearGradient id="paint24_linear_2401_217" x1="1226" y1="88" x2="1226" y2="214" gradientUnits="userSpaceOnUse">
<stop offset="0.395" stop-color="#3D3D3D"/>
</linearGradient>
<linearGradient id="paint25_linear_2401_217" x1="1136" y1="130" x2="1136" y2="260.285" gradientUnits="userSpaceOnUse">
<stop offset="0.395" stop-color="#3D3D3D"/>
</linearGradient>
<linearGradient id="paint26_linear_2401_217" x1="21" y1="2" x2="21" y2="216" gradientUnits="userSpaceOnUse">
<stop offset="0.395" stop-color="#3D3D3D"/>
</linearGradient>
<linearGradient id="paint27_linear_2401_217" x1="754" y1="0" x2="754" y2="145" gradientUnits="userSpaceOnUse">
<stop offset="0.395" stop-color="#3D3D3D"/>
</linearGradient>
<linearGradient id="paint28_linear_2401_217" x1="673" y1="1" x2="673" y2="214" gradientUnits="userSpaceOnUse">
<stop offset="0.395" stop-color="#3D3D3D"/>
</linearGradient>
<linearGradient id="paint29_linear_2401_217" x1="486" y1="0" x2="486" y2="215" gradientUnits="userSpaceOnUse">
<stop offset="0.395" stop-color="#3D3D3D"/>
</linearGradient>
<linearGradient id="paint30_linear_2401_217" x1="835" y1="0" x2="835" y2="214" gradientUnits="userSpaceOnUse">
<stop offset="0.395" stop-color="#3D3D3D"/>
</linearGradient>
<linearGradient id="paint31_linear_2401_217" x1="289" y1="1" x2="289" y2="216" gradientUnits="userSpaceOnUse">
<stop offset="0.395" stop-color="#3D3D3D"/>
</linearGradient>
<linearGradient id="paint32_linear_2401_217" x1="183" y1="2" x2="183" y2="216" gradientUnits="userSpaceOnUse">
<stop offset="0.395" stop-color="#3D3D3D"/>
</linearGradient>
<linearGradient id="paint33_linear_2401_217" x1="102" y1="71" x2="102" y2="216" gradientUnits="userSpaceOnUse">
<stop offset="0.395" stop-color="#3D3D3D"/>
</linearGradient>
<linearGradient id="paint34_linear_2401_217" x1="575" y1="0" x2="575" y2="215" gradientUnits="userSpaceOnUse">
<stop offset="0.395" stop-color="#3D3D3D"/>
</linearGradient>
<linearGradient id="paint35_linear_2401_217" x1="941" y1="1" x2="941" y2="216" gradientUnits="userSpaceOnUse">
<stop offset="0.395" stop-color="#3D3D3D"/>
</linearGradient>
<linearGradient id="paint36_linear_2401_217" x1="941" y1="130" x2="941" y2="260.285" gradientUnits="userSpaceOnUse">
<stop offset="0.395" stop-color="#3D3D3D"/>
</linearGradient>
<linearGradient id="paint37_linear_2401_217" x1="1030" y1="0" x2="1030" y2="215" gradientUnits="userSpaceOnUse">
<stop offset="0.395" stop-color="#3D3D3D"/>
</linearGradient>
<linearGradient id="paint38_linear_2401_217" x1="1134" y1="0" x2="1134" y2="130" gradientUnits="userSpaceOnUse">
<stop offset="0.395" stop-color="#3D3D3D"/>
</linearGradient>
<linearGradient id="paint39_linear_2401_217" x1="1226" y1="88" x2="1226" y2="214" gradientUnits="userSpaceOnUse">
<stop offset="0.395" stop-color="#3D3D3D"/>
</linearGradient>
<linearGradient id="paint40_linear_2401_217" x1="1136" y1="130" x2="1136" y2="260.285" gradientUnits="userSpaceOnUse">
<stop offset="0.395" stop-color="#3D3D3D"/>
</linearGradient>
<linearGradient id="paint41_linear_2401_217" x1="1136" y1="214" x2="1136" y2="344.138" gradientUnits="userSpaceOnUse">
<stop offset="0.395" stop-color="#3D3D3D"/>
</linearGradient>
</defs>
</svg>
